<svg xmlns="http://www.w3.org/2000/svg" width="24" height="24" viewBox="0 0 24 24"><!-- SAM GH icon face_plural_merge --><g vector-effect="non-scaling-stroke"><g transform="translate(5 -1.5) scale(0.78)"><polygon points="20,11 14,14 14,15 20,12" fill="#659335" stroke="#111111" stroke-width="1.41" stroke-linejoin="round"/><polygon points="6,14 0,11 0,12 6,15" fill="#81BC44" stroke="#111111" stroke-width="1.41" stroke-linejoin="round"/><polygon points="14,14 6,14 6,15 14,15" fill="#659335" stroke="#111111" stroke-width="1.41" stroke-linejoin="round"/><polygon points="10,6 20,11 14,14 6,14 0,11" fill="#ADD485" stroke="#111111" stroke-width="1.41" stroke-linejoin="round"/></g><g transform="translate(-0.5 3.6) scale(0.78)"><polygon points="20,11 14,14 14,15 20,12" fill="#659335" stroke="#111111" stroke-width="1.41" stroke-linejoin="round"/><polygon points="6,14 0,11 0,12 6,15" fill="#81BC44" stroke="#111111" stroke-width="1.41" stroke-linejoin="round"/><polygon points="14,14 6,14 6,15 14,15" fill="#659335" stroke="#111111" stroke-width="1.41" stroke-linejoin="round"/><polygon points="10,6 20,11 14,14 6,14 0,11" fill="#ADD485" stroke="#111111" stroke-width="1.41" stroke-linejoin="round"/></g></g><circle cx="19" cy="19" r="5" fill="#FFFFFF"/><circle cx="19" cy="19" r="4.2" fill="#F6C90E"/><path d="M16.6 16.6L19 19.2L21.4 16.6M19 19.2V21.6" fill="none" stroke="#111111" stroke-width="1.8" stroke-linecap="round" stroke-linejoin="round"/></svg>
